<mxfile modified="2022-08-06T16:39:51.353Z" host="app.diagrams.net" agent="5.0 (X11)" etag="EpV6ye6pnYumqrs2Rdwi" version="17.1.3" type="github">
  <diagram id="f106602c-feb2-e66a-4537-3a34d633f6aa" name="Page-1">
    <mxGraphModel dx="1422" dy="749" grid="0" gridSize="10" guides="1" tooltips="1" connect="1" arrows="1" fold="1" page="1" pageScale="1" pageWidth="1169" pageHeight="827" background="none" math="0" shadow="0">
      <root>
        <mxCell id="0" />
        <mxCell id="1" parent="0" />
        <mxCell id="rD7ctFfALCF_D4s80ScS-1017" style="edgeStyle=orthogonalEdgeStyle;rounded=0;orthogonalLoop=1;jettySize=auto;html=1;fontSize=12;" edge="1" parent="1" source="rD7ctFfALCF_D4s80ScS-1001">
          <mxGeometry relative="1" as="geometry">
            <mxPoint x="990" y="453" as="targetPoint" />
          </mxGeometry>
        </mxCell>
        <mxCell id="rD7ctFfALCF_D4s80ScS-1018" value="&lt;b&gt;&lt;font style=&quot;font-size: 16px&quot;&gt;State&lt;/font&gt;&lt;/b&gt;" style="edgeLabel;html=1;align=center;verticalAlign=middle;resizable=0;points=[];fontSize=12;" vertex="1" connectable="0" parent="rD7ctFfALCF_D4s80ScS-1017">
          <mxGeometry x="0.2331" y="-2" relative="1" as="geometry">
            <mxPoint as="offset" />
          </mxGeometry>
        </mxCell>
        <mxCell id="rD7ctFfALCF_D4s80ScS-1001" value="&lt;div align=&quot;center&quot;&gt;&lt;br&gt;&lt;/div&gt;" style="shape=ext;double=1;rounded=1;whiteSpace=wrap;html=1;fontSize=12;align=center;fillColor=#ffe6cc;strokeColor=#d79b00;" vertex="1" parent="1">
          <mxGeometry x="305" y="351.5" width="552" height="203" as="geometry" />
        </mxCell>
        <mxCell id="rD7ctFfALCF_D4s80ScS-1002" value="&lt;b&gt;System Monitor&lt;/b&gt;" style="text;html=1;strokeColor=none;fillColor=none;align=center;verticalAlign=middle;whiteSpace=wrap;rounded=0;fontSize=18;" vertex="1" parent="1">
          <mxGeometry x="506.5" y="325" width="149" height="13" as="geometry" />
        </mxCell>
        <mxCell id="rD7ctFfALCF_D4s80ScS-1011" style="edgeStyle=orthogonalEdgeStyle;rounded=0;orthogonalLoop=1;jettySize=auto;html=1;exitX=1;exitY=0.5;exitDx=0;exitDy=0;entryX=0;entryY=0.5;entryDx=0;entryDy=0;fontSize=12;" edge="1" parent="1" source="rD7ctFfALCF_D4s80ScS-1003" target="rD7ctFfALCF_D4s80ScS-1010">
          <mxGeometry relative="1" as="geometry" />
        </mxCell>
        <mxCell id="rD7ctFfALCF_D4s80ScS-1003" value="&lt;font style=&quot;font-size: 12px&quot;&gt;&lt;font style=&quot;font-size: 12px&quot;&gt;Docker pcm agents&lt;/font&gt;&lt;br&gt;&lt;/font&gt;" style="shape=image;html=1;verticalAlign=top;verticalLabelPosition=bottom;labelBackgroundColor=#ffffff;imageAspect=0;aspect=fixed;image=https://cdn0.iconfinder.com/data/icons/social-media-2104/24/social_media_social_media_logo_docker-128.png;fontSize=18;" vertex="1" parent="1">
          <mxGeometry x="151" y="428.5" width="49" height="49" as="geometry" />
        </mxCell>
        <mxCell id="rD7ctFfALCF_D4s80ScS-1009" value="&lt;b&gt;Node&lt;/b&gt;" style="shape=ext;double=1;rounded=0;whiteSpace=wrap;html=1;fontSize=12;fillColor=#dae8fc;strokeColor=#6c8ebf;" vertex="1" parent="1">
          <mxGeometry x="39" y="360" width="120" height="80" as="geometry" />
        </mxCell>
        <mxCell id="rD7ctFfALCF_D4s80ScS-1010" value="GoLang Script" style="shape=ext;double=1;rounded=1;whiteSpace=wrap;html=1;fontSize=12;" vertex="1" parent="1">
          <mxGeometry x="513" y="413" width="120" height="80" as="geometry" />
        </mxCell>
        <mxCell id="rD7ctFfALCF_D4s80ScS-1014" style="edgeStyle=orthogonalEdgeStyle;rounded=0;orthogonalLoop=1;jettySize=auto;html=1;entryX=0;entryY=1;entryDx=0;entryDy=0;fontSize=12;" edge="1" parent="1" source="rD7ctFfALCF_D4s80ScS-1013" target="rD7ctFfALCF_D4s80ScS-1010">
          <mxGeometry relative="1" as="geometry">
            <Array as="points">
              <mxPoint x="260" y="518" />
              <mxPoint x="513" y="518" />
            </Array>
          </mxGeometry>
        </mxCell>
        <mxCell id="rD7ctFfALCF_D4s80ScS-1013" value="&lt;div&gt;Acknowledgements&lt;/div&gt;&lt;div&gt;&lt;br&gt;&lt;/div&gt;" style="text;html=1;align=center;verticalAlign=middle;resizable=0;points=[];autosize=1;strokeColor=none;fillColor=none;fontSize=12;" vertex="1" parent="1">
          <mxGeometry x="203" y="544" width="114" height="32" as="geometry" />
        </mxCell>
        <mxCell id="rD7ctFfALCF_D4s80ScS-1016" style="edgeStyle=orthogonalEdgeStyle;rounded=0;orthogonalLoop=1;jettySize=auto;html=1;entryX=0;entryY=0.25;entryDx=0;entryDy=0;fontSize=12;" edge="1" parent="1" source="rD7ctFfALCF_D4s80ScS-1015" target="rD7ctFfALCF_D4s80ScS-1010">
          <mxGeometry relative="1" as="geometry">
            <Array as="points">
              <mxPoint x="513" y="414" />
            </Array>
          </mxGeometry>
        </mxCell>
        <mxCell id="rD7ctFfALCF_D4s80ScS-1015" value="&lt;div&gt;Exec lantecy&lt;/div&gt;&lt;div&gt;&lt;br&gt;&lt;/div&gt;" style="text;html=1;align=center;verticalAlign=middle;resizable=0;points=[];autosize=1;strokeColor=none;fillColor=none;fontSize=12;" vertex="1" parent="1">
          <mxGeometry x="221.5" y="398" width="77" height="32" as="geometry" />
        </mxCell>
      </root>
    </mxGraphModel>
  </diagram>
</mxfile>
